<mxfile host="app.diagrams.net" modified="2023-04-28T10:37:10.955Z" agent="Mozilla/5.0 (Windows NT 10.0; Win64; x64) AppleWebKit/537.36 (KHTML, like Gecko) Chrome/112.0.0.0 Safari/537.36 Edg/112.0.1722.58" etag="BdFonywmpW8Gnd83peQN" version="21.2.2" type="device">
  <diagram name="Страница 1" id="8JjNsxk59QOfqC18I43z">
    <mxGraphModel dx="1290" dy="549" grid="1" gridSize="10" guides="1" tooltips="1" connect="1" arrows="1" fold="1" page="1" pageScale="1" pageWidth="827" pageHeight="1169" math="0" shadow="0">
      <root>
        <mxCell id="0" />
        <mxCell id="1" parent="0" />
        <mxCell id="FICRpOMBtXkWzAy6EPuR-2" value="User" style="shape=umlActor;verticalLabelPosition=bottom;verticalAlign=top;html=1;outlineConnect=0;" parent="1" vertex="1">
          <mxGeometry x="630" y="330" width="30" height="60" as="geometry" />
        </mxCell>
        <mxCell id="FICRpOMBtXkWzAy6EPuR-5" value="Админ" style="shape=umlActor;verticalLabelPosition=bottom;verticalAlign=top;html=1;outlineConnect=0;" parent="1" vertex="1">
          <mxGeometry x="110" y="360" width="30" height="60" as="geometry" />
        </mxCell>
        <mxCell id="FICRpOMBtXkWzAy6EPuR-8" value="Зайти на аккаунт" style="ellipse;whiteSpace=wrap;html=1;" parent="1" vertex="1">
          <mxGeometry x="280" y="270" width="100" height="50" as="geometry" />
        </mxCell>
        <mxCell id="_Tu5WyZBWmkeycvH8tmk-1" value="" style="endArrow=none;html=1;rounded=0;entryX=0;entryY=0.5;entryDx=0;entryDy=0;endFill=0;" parent="1" target="FICRpOMBtXkWzAy6EPuR-8" edge="1">
          <mxGeometry width="50" height="50" relative="1" as="geometry">
            <mxPoint x="140" y="380" as="sourcePoint" />
            <mxPoint x="190" y="330" as="targetPoint" />
          </mxGeometry>
        </mxCell>
        <mxCell id="_Tu5WyZBWmkeycvH8tmk-2" value="" style="endArrow=none;html=1;rounded=0;entryX=1;entryY=0.5;entryDx=0;entryDy=0;endFill=0;exitX=0;exitY=0.3333333333333333;exitDx=0;exitDy=0;exitPerimeter=0;" parent="1" source="FICRpOMBtXkWzAy6EPuR-2" target="FICRpOMBtXkWzAy6EPuR-8" edge="1">
          <mxGeometry width="50" height="50" relative="1" as="geometry">
            <mxPoint x="560" y="290" as="sourcePoint" />
            <mxPoint x="350" y="300" as="targetPoint" />
          </mxGeometry>
        </mxCell>
        <mxCell id="_Tu5WyZBWmkeycvH8tmk-5" value="Добавить файл" style="ellipse;whiteSpace=wrap;html=1;" parent="1" vertex="1">
          <mxGeometry x="270" y="60" width="100" height="50" as="geometry" />
        </mxCell>
        <mxCell id="_Tu5WyZBWmkeycvH8tmk-6" value="" style="endArrow=none;html=1;rounded=0;entryX=0;entryY=0.5;entryDx=0;entryDy=0;endFill=0;exitX=1;exitY=0.3333333333333333;exitDx=0;exitDy=0;exitPerimeter=0;" parent="1" target="_Tu5WyZBWmkeycvH8tmk-5" edge="1" source="FICRpOMBtXkWzAy6EPuR-5">
          <mxGeometry width="50" height="50" relative="1" as="geometry">
            <mxPoint x="140" y="100" as="sourcePoint" />
            <mxPoint x="420" y="200" as="targetPoint" />
          </mxGeometry>
        </mxCell>
        <mxCell id="_Tu5WyZBWmkeycvH8tmk-7" value="Добавить блюдо" style="ellipse;whiteSpace=wrap;html=1;" parent="1" vertex="1">
          <mxGeometry x="414" y="20" width="100" height="50" as="geometry" />
        </mxCell>
        <mxCell id="_Tu5WyZBWmkeycvH8tmk-8" value="Добавить стол" style="ellipse;whiteSpace=wrap;html=1;" parent="1" vertex="1">
          <mxGeometry x="414" y="120" width="100" height="50" as="geometry" />
        </mxCell>
        <mxCell id="_Tu5WyZBWmkeycvH8tmk-9" value="" style="endArrow=classic;html=1;rounded=0;exitX=1;exitY=0.5;exitDx=0;exitDy=0;entryX=0;entryY=0.5;entryDx=0;entryDy=0;dashed=1;" parent="1" source="_Tu5WyZBWmkeycvH8tmk-5" target="_Tu5WyZBWmkeycvH8tmk-7" edge="1">
          <mxGeometry width="50" height="50" relative="1" as="geometry">
            <mxPoint x="400" y="220" as="sourcePoint" />
            <mxPoint x="450" y="170" as="targetPoint" />
          </mxGeometry>
        </mxCell>
        <mxCell id="_Tu5WyZBWmkeycvH8tmk-10" value="" style="endArrow=classic;html=1;rounded=0;entryX=0;entryY=0.5;entryDx=0;entryDy=0;dashed=1;" parent="1" target="_Tu5WyZBWmkeycvH8tmk-8" edge="1">
          <mxGeometry width="50" height="50" relative="1" as="geometry">
            <mxPoint x="370" y="90" as="sourcePoint" />
            <mxPoint x="424" y="54.99999999999994" as="targetPoint" />
          </mxGeometry>
        </mxCell>
        <mxCell id="_Tu5WyZBWmkeycvH8tmk-11" value="Просмотреть списко столов" style="ellipse;whiteSpace=wrap;html=1;" parent="1" vertex="1">
          <mxGeometry x="280" y="350" width="100" height="50" as="geometry" />
        </mxCell>
        <mxCell id="_Tu5WyZBWmkeycvH8tmk-12" value="" style="endArrow=none;html=1;rounded=0;entryX=1;entryY=0.5;entryDx=0;entryDy=0;exitX=0;exitY=0.3333333333333333;exitDx=0;exitDy=0;exitPerimeter=0;endFill=0;" parent="1" source="FICRpOMBtXkWzAy6EPuR-2" target="_Tu5WyZBWmkeycvH8tmk-11" edge="1">
          <mxGeometry width="50" height="50" relative="1" as="geometry">
            <mxPoint x="140" y="240" as="sourcePoint" />
            <mxPoint x="360" y="180" as="targetPoint" />
          </mxGeometry>
        </mxCell>
        <mxCell id="_Tu5WyZBWmkeycvH8tmk-14" value="" style="endArrow=none;html=1;rounded=0;entryX=0.023;entryY=0.657;entryDx=0;entryDy=0;exitX=1;exitY=0.3333333333333333;exitDx=0;exitDy=0;exitPerimeter=0;entryPerimeter=0;endFill=0;" parent="1" source="FICRpOMBtXkWzAy6EPuR-5" target="_Tu5WyZBWmkeycvH8tmk-11" edge="1">
          <mxGeometry width="50" height="50" relative="1" as="geometry">
            <mxPoint x="150" y="390" as="sourcePoint" />
            <mxPoint x="250.0000000000001" y="335" as="targetPoint" />
          </mxGeometry>
        </mxCell>
        <mxCell id="_Tu5WyZBWmkeycvH8tmk-15" value="Просмотреть страницу стола" style="ellipse;whiteSpace=wrap;html=1;" parent="1" vertex="1">
          <mxGeometry x="280" y="190" width="100" height="50" as="geometry" />
        </mxCell>
        <mxCell id="_Tu5WyZBWmkeycvH8tmk-17" value="include" style="text;strokeColor=none;fillColor=none;align=left;verticalAlign=middle;spacingLeft=4;spacingRight=4;overflow=hidden;points=[[0,0.5],[1,0.5]];portConstraint=eastwest;rotatable=0;whiteSpace=wrap;html=1;" parent="1" vertex="1">
          <mxGeometry x="380" y="90" width="60" height="20" as="geometry" />
        </mxCell>
        <mxCell id="_Tu5WyZBWmkeycvH8tmk-19" value="include" style="text;strokeColor=none;fillColor=none;align=left;verticalAlign=middle;spacingLeft=4;spacingRight=4;overflow=hidden;points=[[0,0.5],[1,0.5]];portConstraint=eastwest;rotatable=0;whiteSpace=wrap;html=1;" parent="1" vertex="1">
          <mxGeometry x="354" y="40" width="60" height="20" as="geometry" />
        </mxCell>
        <mxCell id="_Tu5WyZBWmkeycvH8tmk-20" value="" style="endArrow=none;html=1;rounded=0;entryX=1;entryY=0.5;entryDx=0;entryDy=0;endFill=0;exitX=0;exitY=0.3333333333333333;exitDx=0;exitDy=0;exitPerimeter=0;" parent="1" source="FICRpOMBtXkWzAy6EPuR-2" target="_Tu5WyZBWmkeycvH8tmk-15" edge="1">
          <mxGeometry width="50" height="50" relative="1" as="geometry">
            <mxPoint x="560" y="290" as="sourcePoint" />
            <mxPoint x="390" y="305" as="targetPoint" />
          </mxGeometry>
        </mxCell>
        <mxCell id="_Tu5WyZBWmkeycvH8tmk-21" value="" style="endArrow=none;html=1;rounded=0;entryX=0;entryY=0.5;entryDx=0;entryDy=0;endFill=0;" parent="1" target="_Tu5WyZBWmkeycvH8tmk-15" edge="1">
          <mxGeometry width="50" height="50" relative="1" as="geometry">
            <mxPoint x="140" y="380" as="sourcePoint" />
            <mxPoint x="290.0000000000001" y="305" as="targetPoint" />
          </mxGeometry>
        </mxCell>
        <mxCell id="_Tu5WyZBWmkeycvH8tmk-23" value="Просмотреть страницу стола" style="ellipse;whiteSpace=wrap;html=1;" parent="1" vertex="1">
          <mxGeometry x="610" y="120" width="100" height="50" as="geometry" />
        </mxCell>
        <mxCell id="_Tu5WyZBWmkeycvH8tmk-24" value="" style="endArrow=none;html=1;rounded=0;entryX=0.5;entryY=1;entryDx=0;entryDy=0;endFill=0;exitX=1;exitY=0.3333333333333333;exitDx=0;exitDy=0;exitPerimeter=0;" parent="1" source="FICRpOMBtXkWzAy6EPuR-2" target="_Tu5WyZBWmkeycvH8tmk-23" edge="1">
          <mxGeometry width="50" height="50" relative="1" as="geometry">
            <mxPoint x="570" y="300" as="sourcePoint" />
            <mxPoint x="390" y="225" as="targetPoint" />
          </mxGeometry>
        </mxCell>
        <mxCell id="_Tu5WyZBWmkeycvH8tmk-25" value="Просмотреть информацию о столе" style="ellipse;whiteSpace=wrap;html=1;" parent="1" vertex="1">
          <mxGeometry x="560" y="20" width="100" height="50" as="geometry" />
        </mxCell>
        <mxCell id="_Tu5WyZBWmkeycvH8tmk-26" value="добавитьблюда" style="ellipse;whiteSpace=wrap;html=1;" parent="1" vertex="1">
          <mxGeometry x="700" y="20" width="100" height="50" as="geometry" />
        </mxCell>
        <mxCell id="_Tu5WyZBWmkeycvH8tmk-27" value="" style="endArrow=block;html=1;rounded=0;entryX=0.5;entryY=0;entryDx=0;entryDy=0;endFill=0;exitX=0.5;exitY=1;exitDx=0;exitDy=0;" parent="1" source="_Tu5WyZBWmkeycvH8tmk-25" target="_Tu5WyZBWmkeycvH8tmk-23" edge="1">
          <mxGeometry width="50" height="50" relative="1" as="geometry">
            <mxPoint x="600" y="300" as="sourcePoint" />
            <mxPoint x="670" y="180" as="targetPoint" />
          </mxGeometry>
        </mxCell>
        <mxCell id="_Tu5WyZBWmkeycvH8tmk-28" value="" style="endArrow=block;html=1;rounded=0;endFill=0;exitX=0.5;exitY=1;exitDx=0;exitDy=0;" parent="1" source="_Tu5WyZBWmkeycvH8tmk-26" edge="1">
          <mxGeometry width="50" height="50" relative="1" as="geometry">
            <mxPoint x="620" y="79.99999999999994" as="sourcePoint" />
            <mxPoint x="660" y="120" as="targetPoint" />
          </mxGeometry>
        </mxCell>
        <mxCell id="_Tu5WyZBWmkeycvH8tmk-31" value="Поставить оценку обслуживанию" style="ellipse;whiteSpace=wrap;html=1;" parent="1" vertex="1">
          <mxGeometry x="480" y="190" width="100" height="50" as="geometry" />
        </mxCell>
        <mxCell id="_Tu5WyZBWmkeycvH8tmk-32" value="" style="endArrow=none;html=1;rounded=0;entryX=0.5;entryY=1;entryDx=0;entryDy=0;endFill=0;exitX=0;exitY=0.3333333333333333;exitDx=0;exitDy=0;exitPerimeter=0;" parent="1" source="FICRpOMBtXkWzAy6EPuR-2" target="_Tu5WyZBWmkeycvH8tmk-31" edge="1">
          <mxGeometry width="50" height="50" relative="1" as="geometry">
            <mxPoint x="670" y="360" as="sourcePoint" />
            <mxPoint x="670" y="180" as="targetPoint" />
          </mxGeometry>
        </mxCell>
      </root>
    </mxGraphModel>
  </diagram>
</mxfile>
